<svg width="16" height="16" viewBox="0 0 16 16" fill="none" xmlns="http://www.w3.org/2000/svg">
<g id="Error icon">
<path id="Glyph" d="M8.00013 1.33325C6.20013 1.33325 4.53347 2.06659 3.2668 3.33325C2.00013 4.59992 1.33347 6.33325 1.33347 8.13325C1.33347 11.7333 4.2668 14.6666 7.8668 14.6666H8.00013C11.7328 14.5999 14.6668 11.5999 14.6668 7.86659C14.6668 4.26659 11.7328 1.33325 8.13347 1.33325H8.00013ZM7.4668 5.05332C7.4668 4.71999 7.73347 4.51998 8.00013 4.51998C8.33347 4.51998 8.53347 4.78665 8.53347 5.05332V8.38665C8.53347 8.71998 8.2668 8.91998 8.00013 8.91998C7.6668 8.91998 7.4668 8.71998 7.4668 8.38665V5.05332ZM8 11.4867C7.52135 11.4867 7.13333 11.0987 7.13333 10.6201C7.13333 10.1414 7.52135 9.75338 8 9.75338C8.47865 9.75338 8.86667 10.1414 8.86667 10.6201C8.86667 11.0987 8.47865 11.4867 8 11.4867Z" fill="#D21C1C"/>
</g>
</svg>
