<svg width="20" height="20" viewBox="0 0 20 20" fill="none" xmlns="http://www.w3.org/2000/svg">
<g id="Check Circle">
<path id="Glyph" d="M7.03743 10.5562C6.75152 10.2565 6.27677 10.2453 5.97707 10.5313C5.67736 10.8172 5.66619 11.2919 5.95211 11.5916L8.09592 13.879C8.40247 14.2003 8.91955 14.1864 9.20835 13.849L13.8676 7.98514C14.137 7.67047 14.1002 7.19702 13.7856 6.92766C13.4709 6.65831 12.9974 6.69505 12.7281 7.00972L8.84911 11.9374C8.73524 12.0821 8.52567 12.107 8.38101 11.9931C8.36755 11.9826 8.35493 11.9709 8.34325 11.9584L7.03743 10.5562ZM1.66632 9.99999C1.66632 5.41666 5.41632 1.66666 9.99965 1.66666C14.583 1.66666 18.333 5.41666 18.333 9.99999C18.333 14.5833 14.583 18.3333 9.99965 18.3333C5.41632 18.3333 1.66632 14.5833 1.66632 9.99999Z" fill="#28A138"/>
</g>
</svg>
