<svg width="20" height="20" viewBox="0 0 20 20" fill="none" xmlns="http://www.w3.org/2000/svg">
<g id="Close">
<path id="Glyph" d="M14.7129 5.27763C15.006 5.57031 15.0063 6.04518 14.7137 6.33829L11.3414 9.71487C11.1854 9.87103 11.1854 10.124 11.3414 10.2802L14.7137 13.6571C14.9819 13.9258 15.004 14.3472 14.7801 14.641L14.7129 14.7177C14.4198 15.0104 13.9449 15.0101 13.6522 14.717L10.2822 11.3419C10.1259 11.1854 9.87231 11.1854 9.71606 11.3419L6.34734 14.717C6.05466 15.0101 5.57979 15.0104 5.28668 14.7177C4.99357 14.4251 4.99322 13.9502 5.2859 13.6571L8.65774 10.2802C8.81367 10.124 8.81366 9.87105 8.65772 9.71489L5.2859 6.33829C5.01761 6.0696 4.99555 5.64819 5.2195 5.35438L5.28668 5.27763C5.57979 4.98495 6.05466 4.9853 6.34734 5.27841L9.71611 8.6524C9.87235 8.80888 10.1259 8.8089 10.2822 8.65245L13.6522 5.27841C13.9449 4.9853 14.4198 4.98495 14.7129 5.27763Z" fill="white"/>
</g>
</svg>
