<svg width="50" height="49" viewBox="0 0 50 49" fill="none" xmlns="http://www.w3.org/2000/svg">
<g id="Group 2">
<path id="Vector 9" d="M29.9741 47.4433L23.1747 43.6315L29.8024 25.2594L29.9741 47.4433Z" stroke="#506AC7"/>
<path id="Vector 7" d="M47.8761 4.51385L48.6662 4.80254L45.7033 6.51948L47.8761 4.51385Z" stroke="#506AC7"/>
<path id="Vector 6" d="M47.4385 1.68266L32.2607 16.285V1.2151L47.4385 1.68266Z" stroke="#506AC7"/>
<path id="Vector 5" d="M29.9407 17.7999H15.9262L29.9407 3.07037V17.7999Z" stroke="#506AC7"/>
<path id="Vector 3" d="M3.46009 9.63967H1.2933L3.46009 7.66986V9.63967Z" stroke="#506AC7"/>
<path id="Vector 4" d="M13.0841 17.9724C12.9357 18.1396 12.8353 18.2641 12.8003 18.3291V17.8799C12.8513 17.8799 12.9434 17.8883 13.0414 17.9448C13.0563 17.9534 13.0705 17.9626 13.0841 17.9724ZM12.7217 17.6275C12.6411 17.718 12.5672 17.8039 12.5067 17.8799H5.78013V6.2796H8.41669L15.788 14.5159C15.1585 15.1303 14.3637 15.9161 13.704 16.5901C13.3115 16.9912 12.9613 17.3582 12.7217 17.6275Z" stroke="#506AC7"/>
<path id="Vector 8" d="M29.3732 20.0799L23.3225 37.162L7.19961 20.0799H29.3732Z" stroke="#506AC7"/>
</g>
</svg>
