<svg width="14" height="14" viewBox="0 0 14 14" fill="none" xmlns="http://www.w3.org/2000/svg">
<path d="M8.06683 3.86683C8.06683 4.32905 7.72016 4.7335 7.20016 4.7335C6.68016 4.7335 6.3335 4.32905 6.3335 3.86683C6.3335 3.40461 6.73794 3.00016 7.20016 3.00016C7.66238 3.00016 8.06683 3.40461 8.06683 3.86683ZM6.22238 10.3335C5.88905 10.3335 5.66683 10.1238 5.66683 9.80915C5.66683 9.49454 5.88905 9.28481 6.22238 9.28481H6.66683C6.72238 9.28481 6.77794 9.23237 6.77794 9.17994V6.82039C6.77794 6.76795 6.72238 6.71552 6.66683 6.71552H6.22238C5.88905 6.71552 5.66683 6.50578 5.66683 6.19117C5.66683 5.87657 5.88905 5.66683 6.22238 5.66683H6.77794C7.38905 5.66683 7.88905 6.13874 7.88905 6.71552V9.23237C7.88905 9.28481 7.94461 9.33724 8.00016 9.33724H8.44461C8.77794 9.33724 9.00016 9.54698 9.00016 9.86159C9.00016 10.1762 8.77794 10.3335 8.44461 10.3335H6.22238ZM7.00016 0.333496C3.3335 0.333496 0.333496 3.3335 0.333496 7.00016C0.333496 10.6668 3.3335 13.6668 7.00016 13.6668C10.6668 13.6668 13.6668 10.6668 13.6668 7.00016C13.6668 3.3335 10.6668 0.333496 7.00016 0.333496Z" fill="#697D95"/>
</svg>

