<svg width="16" height="16" viewBox="0 0 16 16" fill="none" xmlns="http://www.w3.org/2000/svg">
<g id="Help icon">
<path id="Glyph" d="M9.06667 4.86668C9.06667 5.3289 8.72 5.73334 8.2 5.73334C7.68 5.73334 7.33333 5.3289 7.33333 4.86668C7.33333 4.40445 7.73778 4.00001 8.2 4.00001C8.66222 4.00001 9.06667 4.40445 9.06667 4.86668ZM7.22222 11.3333C6.88889 11.3333 6.66667 11.1236 6.66667 10.809C6.66667 10.4944 6.88889 10.2847 7.22222 10.2847H7.66667C7.72222 10.2847 7.77778 10.2322 7.77778 10.1798V7.82023C7.77778 7.7678 7.72222 7.71537 7.66667 7.71537H7.22222C6.88889 7.71537 6.66667 7.50563 6.66667 7.19102C6.66667 6.87641 6.88889 6.66668 7.22222 6.66668H7.77778C8.38889 6.66668 8.88889 7.13859 8.88889 7.71537V10.2322C8.88889 10.2847 8.94444 10.3371 9 10.3371H9.44444C9.77778 10.3371 10 10.5468 10 10.8614C10 11.176 9.77778 11.3333 9.44444 11.3333H7.22222ZM8 1.33334C4.33333 1.33334 1.33333 4.33334 1.33333 8.00001C1.33333 11.6667 4.33333 14.6667 8 14.6667C11.6667 14.6667 14.6667 11.6667 14.6667 8.00001C14.6667 4.33334 11.6667 1.33334 8 1.33334Z" fill="#0172CB"/>
</g>
</svg>
